# xmcd CD database file
#
# Track frame offsets:
#	182
#	21145
#	36015
#	47530
#	61482
#	76310
#	92985
#	109345
#	124627
#	140790
#	155767
#	171927
#
# Disc length: 2532 seconds
#
# Revision: 6
# Processed by: cddbd v1.5.2PL0 Copyright (c) Steve Scherf et al.
# Submitted via: CDex 1.51
#
DISCID=a309e20c
DTITLE=Toby Keith - Christmas To Christmas
DYEAR=1995
DGENRE=Christmas
TTITLE0=Santa I'm Right Here
TTITLE1=Bethlehem In Birmingham
TTITLE2=Christmas Rock
TTITLE3=Blame It On The Mistletoe
TTITLE4=Santa's Gonna Take It All Back
TTITLE5=The Night Before Christmas
TTITLE6=Hot Rod Sleigh
TTITLE7=Christmas To Christmas
TTITLE8=Jesus Gets Jealous Of Santa Claus
TTITLE9=Mary, It's Christmas
TTITLE10=All I Want For Christmas
TTITLE11=What Made The Baby Cry?
EXTD=YEAR: 1995
EXTT0=
EXTT1=
EXTT2=
EXTT3=
EXTT4=
EXTT5=
EXTT6=
EXTT7=
EXTT8=
EXTT9=
EXTT10=
EXTT11=
PLAYORDER=
